<svg width="200" height="201" viewBox="0 0 200 201" fill="none" xmlns="http://www.w3.org/2000/svg">
<path d="M199.234 114.719C196.497 134.307 188.013 152.643 174.854 167.409C161.696 182.174 144.454 192.707 125.31 197.674C106.165 202.64 85.9781 201.819 67.3008 195.313C48.6234 188.806 32.2948 176.908 20.3798 161.122C8.46486 145.335 1.49862 126.37 0.362074 106.625C-0.774475 86.8793 3.96971 67.2402 13.9947 50.1911C24.0197 33.1419 38.8752 19.4484 56.6826 10.8421C74.4901 2.23577 94.4498 -0.89672 114.038 1.84071L100.197 100.878L199.234 114.719Z" fill="url(#paint0_linear_1502_5512)"/>
<defs>
<linearGradient id="paint0_linear_1502_5512" x1="114.038" y1="1.84071" x2="86.3561" y2="199.916" gradientUnits="userSpaceOnUse">
<stop stop-color="#2860EF"/>
<stop offset="0.0520833" stop-color="white" stop-opacity="0"/>
</linearGradient>
</defs>
</svg>
