<svg width="36" height="36" viewBox="0 0 36 36" fill="none" xmlns="http://www.w3.org/2000/svg">
<path fill-rule="evenodd" clip-rule="evenodd" d="M14 26C20.6274 26 26 20.6274 26 14C26 7.37258 20.6274 2 14 2C7.37258 2 2 7.37258 2 14C2 20.6274 7.37258 26 14 26ZM8.25 10.625C8.25 9.31332 9.31332 8.25 10.625 8.25H17.375C18.6867 8.25 19.75 9.31332 19.75 10.625V17.375C19.75 18.6867 18.6867 19.75 17.375 19.75H10.625C9.31332 19.75 8.25 18.6867 8.25 17.375V10.625ZM10.625 6.25C8.20875 6.25 6.25 8.20875 6.25 10.625V17.375C6.25 19.7912 8.20875 21.75 10.625 21.75H17.375C19.7912 21.75 21.75 19.7912 21.75 17.375V10.625C21.75 8.20875 19.7912 6.25 17.375 6.25H10.625ZM14.279 12.2894C13.9253 12.2369 13.564 12.2974 13.2466 12.462C12.9292 12.6267 12.6719 12.8873 12.5111 13.2067C12.3503 13.5261 12.2944 13.888 12.3512 14.2411C12.408 14.5941 12.5747 14.9202 12.8275 15.1731C13.0804 15.4259 13.4065 15.5926 13.7595 15.6494C14.1125 15.7062 14.4745 15.6503 14.7939 15.4895C15.1133 15.3287 15.3739 15.0714 15.5386 14.754C15.7032 14.4366 15.7637 14.0753 15.7112 13.7216C15.6577 13.3608 15.4896 13.0268 15.2317 12.7689C14.9738 12.511 14.6397 12.3429 14.279 12.2894ZM12.3255 10.6868C13.0163 10.3284 13.8025 10.1969 14.5723 10.311C15.3576 10.4275 16.0846 10.7934 16.6459 11.3547C17.2072 11.916 17.5731 12.643 17.6896 13.4283C17.8037 14.1981 17.6722 14.9843 17.3138 15.6751C16.9554 16.3659 16.3882 16.9261 15.6931 17.276C14.9979 17.6259 14.2101 17.7476 13.4418 17.624C12.6734 17.5004 11.9636 17.1376 11.4133 16.5873C10.863 16.037 10.5002 15.3272 10.3766 14.5588C10.2529 13.7905 10.3747 13.0027 10.7246 12.3075C11.0745 11.6124 11.6347 11.0452 12.3255 10.6868ZM17.7126 9.28735C17.1604 9.28735 16.7126 9.73507 16.7126 10.2874C16.7126 10.8396 17.1604 11.2874 17.7126 11.2874H17.7189C18.2712 11.2874 18.7189 10.8396 18.7189 10.2874C18.7189 9.73507 18.2712 9.28735 17.7189 9.28735H17.7126Z" fill="white"/>
</svg>
