<svg width="26" height="26" viewBox="0 0 26 26" fill="none" xmlns="http://www.w3.org/2000/svg">
<path d="M13 1.625C6.71836 1.625 1.625 6.71836 1.625 13C1.625 19.2816 6.71836 24.375 13 24.375C19.2816 24.375 24.375 19.2816 24.375 13C24.375 6.71836 19.2816 1.625 13 1.625ZM18.4666 10.1994C18.4742 10.3188 18.4742 10.4432 18.4742 10.565C18.4742 14.2924 15.6355 18.5859 10.4482 18.5859C8.84863 18.5859 7.36582 18.1213 6.1166 17.3215C6.34512 17.3469 6.56348 17.357 6.79707 17.357C8.11738 17.357 9.33105 16.9102 10.2984 16.1535C9.05938 16.1281 8.01836 15.3156 7.66289 14.1984C8.09707 14.2619 8.48809 14.2619 8.93496 14.1477C8.29696 14.018 7.72351 13.6715 7.31203 13.167C6.90056 12.6625 6.67643 12.0311 6.67773 11.3801V11.3445C7.05098 11.5553 7.49023 11.6848 7.9498 11.7025C7.56347 11.4451 7.24663 11.0962 7.02739 10.687C6.80815 10.2777 6.69328 9.82072 6.69297 9.35645C6.69297 8.83086 6.83008 8.35098 7.07637 7.93457C7.78452 8.80632 8.66818 9.51931 9.66993 10.0272C10.6717 10.5351 11.7691 10.8264 12.8908 10.8824C12.4922 8.96543 13.9242 7.41406 15.6457 7.41406C16.4582 7.41406 17.1895 7.7543 17.7049 8.30273C18.3422 8.1834 18.9516 7.94473 19.4949 7.6248C19.2842 8.27734 18.8424 8.82832 18.2559 9.17617C18.8246 9.11523 19.373 8.95781 19.8809 8.73691C19.4975 9.30059 19.0176 9.80078 18.4666 10.1994Z" fill="white"/>
</svg>
